<mxfile host="Electron" agent="Mozilla/5.0 (Macintosh; Intel Mac OS X 10_15_7) AppleWebKit/537.36 (KHTML, like Gecko) draw.io/25.0.2 Chrome/128.0.6613.186 Electron/32.2.5 Safari/537.36" version="25.0.2">
  <diagram name="Page-1" id="UQFzICWxXUZrhsfs_lrC">
    <mxGraphModel dx="1026" dy="743" grid="1" gridSize="10" guides="1" tooltips="1" connect="1" arrows="1" fold="1" page="1" pageScale="1" pageWidth="1600" pageHeight="900" math="0" shadow="0">
      <root>
        <mxCell id="0" />
        <mxCell id="1" parent="0" />
        <mxCell id="F5JFDG-yKz0P3_vOaS9b-10" value="" style="edgeStyle=orthogonalEdgeStyle;rounded=0;orthogonalLoop=1;jettySize=auto;html=1;" edge="1" parent="1" source="F5JFDG-yKz0P3_vOaS9b-1" target="F5JFDG-yKz0P3_vOaS9b-2">
          <mxGeometry relative="1" as="geometry" />
        </mxCell>
        <mxCell id="F5JFDG-yKz0P3_vOaS9b-1" value="DeformableICP" style="rounded=0;whiteSpace=wrap;html=1;" vertex="1" parent="1">
          <mxGeometry x="490" y="10" width="120" height="60" as="geometry" />
        </mxCell>
        <mxCell id="F5JFDG-yKz0P3_vOaS9b-11" style="edgeStyle=orthogonalEdgeStyle;rounded=0;orthogonalLoop=1;jettySize=auto;html=1;entryX=0.5;entryY=0;entryDx=0;entryDy=0;" edge="1" parent="1" source="F5JFDG-yKz0P3_vOaS9b-2" target="F5JFDG-yKz0P3_vOaS9b-3">
          <mxGeometry relative="1" as="geometry" />
        </mxCell>
        <mxCell id="F5JFDG-yKz0P3_vOaS9b-12" style="edgeStyle=orthogonalEdgeStyle;rounded=0;orthogonalLoop=1;jettySize=auto;html=1;entryX=0.5;entryY=0;entryDx=0;entryDy=0;" edge="1" parent="1" source="F5JFDG-yKz0P3_vOaS9b-2" target="F5JFDG-yKz0P3_vOaS9b-4">
          <mxGeometry relative="1" as="geometry" />
        </mxCell>
        <mxCell id="F5JFDG-yKz0P3_vOaS9b-2" value="__call__()" style="ellipse;whiteSpace=wrap;html=1;" vertex="1" parent="1">
          <mxGeometry x="490" y="110" width="120" height="80" as="geometry" />
        </mxCell>
        <mxCell id="F5JFDG-yKz0P3_vOaS9b-3" value="match()" style="ellipse;whiteSpace=wrap;html=1;" vertex="1" parent="1">
          <mxGeometry x="375" y="230" width="120" height="80" as="geometry" />
        </mxCell>
        <mxCell id="F5JFDG-yKz0P3_vOaS9b-14" value="" style="edgeStyle=orthogonalEdgeStyle;rounded=0;orthogonalLoop=1;jettySize=auto;html=1;" edge="1" parent="1" source="F5JFDG-yKz0P3_vOaS9b-4" target="F5JFDG-yKz0P3_vOaS9b-7">
          <mxGeometry relative="1" as="geometry" />
        </mxCell>
        <mxCell id="F5JFDG-yKz0P3_vOaS9b-15" style="edgeStyle=orthogonalEdgeStyle;rounded=0;orthogonalLoop=1;jettySize=auto;html=1;entryX=0.5;entryY=0;entryDx=0;entryDy=0;" edge="1" parent="1" source="F5JFDG-yKz0P3_vOaS9b-4" target="F5JFDG-yKz0P3_vOaS9b-5">
          <mxGeometry relative="1" as="geometry" />
        </mxCell>
        <mxCell id="F5JFDG-yKz0P3_vOaS9b-16" style="edgeStyle=orthogonalEdgeStyle;rounded=0;orthogonalLoop=1;jettySize=auto;html=1;entryX=0.5;entryY=0;entryDx=0;entryDy=0;" edge="1" parent="1" source="F5JFDG-yKz0P3_vOaS9b-4" target="F5JFDG-yKz0P3_vOaS9b-6">
          <mxGeometry relative="1" as="geometry">
            <Array as="points">
              <mxPoint x="640" y="330" />
              <mxPoint x="850" y="330" />
            </Array>
          </mxGeometry>
        </mxCell>
        <mxCell id="F5JFDG-yKz0P3_vOaS9b-17" style="edgeStyle=orthogonalEdgeStyle;rounded=0;orthogonalLoop=1;jettySize=auto;html=1;entryX=0.5;entryY=0;entryDx=0;entryDy=0;" edge="1" parent="1" source="F5JFDG-yKz0P3_vOaS9b-4" target="F5JFDG-yKz0P3_vOaS9b-8">
          <mxGeometry relative="1" as="geometry">
            <Array as="points">
              <mxPoint x="640" y="330" />
              <mxPoint x="385" y="330" />
            </Array>
          </mxGeometry>
        </mxCell>
        <mxCell id="F5JFDG-yKz0P3_vOaS9b-18" style="edgeStyle=orthogonalEdgeStyle;rounded=0;orthogonalLoop=1;jettySize=auto;html=1;entryX=0.5;entryY=0;entryDx=0;entryDy=0;" edge="1" parent="1" source="F5JFDG-yKz0P3_vOaS9b-4" target="F5JFDG-yKz0P3_vOaS9b-9">
          <mxGeometry relative="1" as="geometry">
            <Array as="points">
              <mxPoint x="640" y="330" />
              <mxPoint x="180" y="330" />
            </Array>
          </mxGeometry>
        </mxCell>
        <mxCell id="F5JFDG-yKz0P3_vOaS9b-4" value="get_new_deformed_mesh()" style="ellipse;whiteSpace=wrap;html=1;" vertex="1" parent="1">
          <mxGeometry x="555" y="230" width="170" height="80" as="geometry" />
        </mxCell>
        <mxCell id="F5JFDG-yKz0P3_vOaS9b-5" value="_deform_mesh" style="ellipse;whiteSpace=wrap;html=1;" vertex="1" parent="1">
          <mxGeometry x="490" y="350" width="120" height="80" as="geometry" />
        </mxCell>
        <mxCell id="F5JFDG-yKz0P3_vOaS9b-6" value="_homogenize" style="ellipse;whiteSpace=wrap;html=1;" vertex="1" parent="1">
          <mxGeometry x="790" y="350" width="120" height="80" as="geometry" />
        </mxCell>
        <mxCell id="F5JFDG-yKz0P3_vOaS9b-7" value="_residual_error" style="ellipse;whiteSpace=wrap;html=1;" vertex="1" parent="1">
          <mxGeometry x="640" y="350" width="120" height="80" as="geometry" />
        </mxCell>
        <mxCell id="F5JFDG-yKz0P3_vOaS9b-8" value="_get_deformable_transf" style="ellipse;whiteSpace=wrap;html=1;" vertex="1" parent="1">
          <mxGeometry x="310" y="350" width="150" height="80" as="geometry" />
        </mxCell>
        <mxCell id="F5JFDG-yKz0P3_vOaS9b-9" value="_compute_mode_coordinates" style="ellipse;whiteSpace=wrap;html=1;" vertex="1" parent="1">
          <mxGeometry x="90" y="350" width="180" height="80" as="geometry" />
        </mxCell>
      </root>
    </mxGraphModel>
  </diagram>
</mxfile>
